# xmcd CD database file
# Generated: Tue Apr 9 16:17:38 2002 by KSCD
# 
# Track frame offsets:
#       150
#       11379
#       43024
#       71245
#       95590
#       109142
#       129395
#       163372
#       187847
#       222016
#
# Disc length: 3122 seconds
#
# Revision: 5
# Processed by: cddbd v1.4PL0 Copyright (c) Steve Scherf et al.
# Submitted via: Kscd 1.3.0
#
DISCID=880c300a
DTITLE=Presser Gábor - Angyalok és emberek
DYEAR=1900
DGENRE=
TTITLE0=A celofán-nap és a papír-hold
TTITLE1=Majd elfújja a szél
TTITLE2=Megemeltek az angyalok
TTITLE3=Én szeretem a túlerõt 
TTITLE4=Engem is vigyél el
TTITLE5=Milyen jó lenne
TTITLE6=Don Quijote Budapesten
TTITLE7=Jó veled
TTITLE8=Kék likõr 
TTITLE9=Medvetánc
EXTD=
EXTT0=
EXTT1=
EXTT2=
EXTT3=
EXTT4=
EXTT5=
EXTT6=
EXTT7=
EXTT8=
EXTT9=
PLAYORDER=
